<?xml version="1.0" encoding="UTF-8"?><svg id="_レイヤー_1" xmlns="http://www.w3.org/2000/svg" width="158" height="48" viewBox="0 0 158 48"><defs><style>.cls-1{fill:#004697;}.cls-2{fill:#007a60;}.cls-3{fill:#333;}</style></defs><g><path class="cls-3" d="M81.91,47.07c-.3,.4-1,.9-2,.9-1.5,0-2.5-.6-2.5-2.2,0-1.8,1.9-2.3,3.2-2.3h1.2c0-1-.4-1.5-1.5-1.5-.7,0-1.4,.3-1.9,.7l-.2,.1v-1.3h0c.6-.4,1.4-.6,2.2-.6,2,0,2.8,1,2.8,2.8v2.7c0,.7,0,1.1,.1,1.3v.1h-1.4v-.7m-.2-2.4h-.7c-.3,0-.9,0-1.4,.2s-.8,.5-.8,1c0,.6,.6,1,1.1,1,1.2,0,1.7-.7,1.7-1.6v-.6h.1Z"/><path class="cls-3" d="M76.52,40.38l-.2-.1c-.6-.3-1.2-.5-1.8-.5-2,0-3.4,1.5-3.4,3.4,0,2.1,1.5,3.4,3.3,3.4,.6,0,1.5-.2,1.9-.4l.2-.1v1.5h0c-.7,.3-1.6,.4-2.1,.4-2.9,0-4.89-1.9-4.89-4.79s2.1-4.69,4.89-4.69c.7,0,1.4,.1,2.1,.4h.1v1.5"/><path class="cls-3" d="M88.3,41.98c-1.2,0-1.9,1.2-1.9,2.4,0,1.1,.6,2.4,1.9,2.4,1.2,0,1.8-1.4,1.7-2.4,0-1.2-.5-2.4-1.7-2.4m-1.9,4.99v.8h-1.4v-9.39h1.4v3.3c.4-.5,1.1-.9,2.1-.9,2,0,2.9,1.6,2.9,3.4s-.9,3.7-2.9,3.7c-1,.1-1.7-.4-2.1-.9Z"/><rect class="cls-3" x="93" y="38.38" width="1.6" height="1.6"/><rect class="cls-3" x="93.1" y="40.98" width="1.4" height="6.79"/><path class="cls-3" d="M97.89,41.88c.4-.6,1.3-1,2.1-1,1.8,0,2.6,1.1,2.6,2.9v4h-1.4v-3.5c0-1.5-.3-2.2-1.3-2.3-1.3,0-1.9,1-1.9,2.6v3.2h-1.4v-6.79h1.3v.9"/><path class="cls-3" d="M108.68,43.68c0-.9-.6-1.7-1.6-1.7-1.1,0-1.6,.8-1.7,1.7h3.3m1,3.8h0c-.3,.1-.5,.2-.9,.3-.3,.1-.7,.2-1.3,.2-2.4,0-3.5-1.5-3.5-3.7,0-2,1.3-3.4,3.2-3.4,2.3,0,3,1.7,3,3.8v.1h-4.69c0,1.2,1,2,2.1,2,.8,0,1.7-.4,2-.6l.2-.1v1.4h-.1Z"/><path class="cls-3" d="M115.37,42.18h-1.8v3.5c0,.7,.4,1.1,.9,1.1,.4,0,.6-.1,.8-.2l.1-.1v1.3h-.1c-.3,.1-.7,.2-1.1,.2-1.3,0-2.1-.6-2.1-2v-3.8h-1.5v-1.2h1.5v-1.5l1.4-.4v2h1.8v1.1"/><path class="cls-3" d="M124.36,38.38c2.8,0,4.4,2,4.4,4.79s-1.6,4.79-4.4,4.79-4.4-2-4.4-4.79c-.1-2.7,1.6-4.79,4.4-4.79m0,8.29c2,0,2.9-1.7,2.9-3.4,0-1.8-1-3.5-2.9-3.4-1.9,0-2.9,1.6-2.9,3.4,0,1.7,.9,3.4,2.9,3.4Z"/><path class="cls-3" d="M134.25,38.28v1.2h-.1c-.1,0-.3-.1-.6-.1-1,0-1.1,.6-1.1,1.5l.1,.1h1.8v1.2h-1.8v5.59h-1.4v-5.59h-1.6v-1.2h1.6v-.2c0-1.6,.4-2.6,2.3-2.6,.2,.1,.5,.1,.8,.1h0"/><rect class="cls-3" x="141.15" y="38.38" width="1.6" height="1.6"/><rect class="cls-3" x="141.25" y="40.98" width="1.4" height="6.79"/><path class="cls-3" d="M149.14,42.38l-.2-.1c-.5-.2-.9-.3-1.3-.3-1.3,0-2,1.2-2,2.4s.6,2.4,2.1,2.4c.4,0,.9-.1,1.3-.4l.2-.1v1.4c-.5,.2-1.1,.3-1.6,.3-2.1,0-3.5-1.6-3.5-3.6,0-2.1,1.4-3.6,3.5-3.6,.5,0,1.2,.1,1.5,.3h.1v1.3"/><path class="cls-3" d="M154.73,43.68c0-.9-.6-1.7-1.6-1.7-1.1,0-1.6,.8-1.7,1.7h3.3m1,3.8h0c-.3,.1-.5,.2-.9,.3-.3,.1-.7,.2-1.3,.2-2.4,0-3.5-1.5-3.5-3.7,0-2,1.3-3.4,3.2-3.4,2.3,0,3,1.7,3,3.8v.1h-4.69c0,1.2,1,2,2.1,2,.8,0,1.7-.4,2-.6l.2-.1v1.4h-.1Z"/><path class="cls-3" d="M139.75,38.28v1.2h-.1c-.1,0-.3-.1-.6-.1-1,0-1.1,.6-1.1,1.5l.1,.1h1.8v1.2h-1.8v5.59h-1.4v-5.59h-1.6v-1.2h1.6v-.2c0-1.6,.4-2.6,2.3-2.6,.3,.1,.5,.1,.8,.1h0"/></g><g><path class="cls-1" d="M.2,44.18c-.1,0-.2-.1-.2-.2,3.3-8.79,8.19-16.08,17.18-23.07,.2-.1,.4-.1,.4,.2,0,9.49-.5,13.39-1,14.48-.6,1.2-.8,1.2-2,.7-1.2-.4-2.6-1.2-6.09-3.3-1.2-.7-1.5-.4-.3,.4,3.4,2.3,4.59,3.4,5.49,4.3,.9,.9,1.2,2,0,2.4-4.2,1.7-8.69,3.1-13.49,4.1M57.34,.33c-9.79,15.18-21.28,27.87-35.76,35.96-1.2,.7-1.7,.5-2.3-.7-.6-1.2-1-5.39-1-14.98,0-.4,.2-.7,.4-.9C27.37,13.31,39.36,7.12,57.14,.03c.2-.1,.3,.1,.2,.3Z"/><path class="cls-2" d="M17.38,47.97c-3.9,.1-7.59-.1-11.19-.4-.2,0-.2-.2-.1-.3,2.7-2.7,5.59-4.69,8.69-6.09,1-.5,1.6-.2,2.1,.5,.4,.7,.8,2.2,.8,6.09-.1,0-.2,.2-.3,.2m4.1-7.89c-.4-.5-.4-1,.6-1.2,4.59-1.1,9.79-1.1,15.28-1.1,2.5,0,10.69,.5,13.09,.8,.2,0,.3,.2,.1,.3-11.69,6.29-22.38,8.69-32.06,9.09-.2,0-.3-.1-.3-.2,0-3.7,.5-5.19,.8-5.99,.3-.9,.8-.8,1.5-.6,.9,.3,2.6,1.2,5.29,2.9,.7,.4,.9,.1,.2-.3-2.7-2-3.9-3-4.5-3.7Z"/></g><g><path class="cls-3" d="M141.74,16.41v15.38h-2.2v-11.99c-.8,1.1-1.5,1.9-2.2,2.5l-1.7-1.6c3-2.7,4.5-5.49,5.99-9.49h2.4c-.3,1.2-1.1,3-2.3,5.19"/><path class="cls-3" d="M144.04,5.82v2.7h-10.59v11.19c0,4.69-.7,8.19-2.1,11.09l2.2,1c1.8-3.8,2.1-8.09,2.1-12.29V10.71h22.08v-2.2h-11.39v-2.7h-2.3"/><path class="cls-3" d="M155.13,11.31h-2.3v4h-9.29v2.2h9.29v11.29c0,.9-.3,.9-.8,.9h-2.9v2.3h3.6c1.5,0,2.4-.8,2.4-2.4v-11.99h2.7v-2.2h-2.7v-4.1"/><path class="cls-3" d="M149.64,26.9c-.3-1.6-1.1-4.89-2-7.09h-2.2c1,2.5,1.8,5.49,2,7.09h2.2"/><path class="cls-3" d="M79.41,8.52h-10.59V31.79h2.3V10.71h8.19c0,2-1,5.29-2,7.09-1.5,2.5-3.3,4-5.89,5.49l1.3,2.2c4.5-2.5,6.59-6.39,7.89-9.59,.7,1.8,2,5.39,7.49,9.49l1.5-2c-.8-.5-2-1.3-3.5-2.8-2.9-2.9-4.4-6.59-4.4-9.89h8.09V28.8c0,.7-.4,.7-.8,.7h-3.3v2.3h4c2.2,0,2.3-1.6,2.3-2.4V8.52h-10.29v-3h-2.3v3"/><path class="cls-3" d="M114.17,7.22h10.79V29.79c0,1.2-.6,2.1-2.1,2.1h-2.4v-2.2h1.5c.8,0,.8-.3,.8-.7v-12.79h-8.49V7.22m2.1,7.29h6.39v-2h-6.39v2Zm0-3.6h6.39v-2h-6.39v2Z"/><path class="cls-3" d="M107.28,25.2h11.39v6.19h-11.39v-6.19Zm2,4.5h7.29v-2.9h-7.29v2.9Z"/><path class="cls-3" d="M100.89,7.22h10.79v9.09h-8.49v15.58h-2.3V7.22m2.3,7.29h6.39v-2h-6.39v2Zm0-3.6h6.39v-2h-6.39v2Z"/><path class="cls-3" d="M121.57,26.5c-3.5-.9-6.19-1.7-8.49-2.9-2.5,1.3-5.29,2.2-8.79,2.8v-1.9c2.8-.5,4.99-1.1,6.79-1.9-1-.6-1.9-1.3-2.8-2.2-1.2,.8-2.4,1.3-3.3,1.7l-.8-1.7c2-.8,3.9-1.9,5.49-3.5h2.6c-.2,.3-.5,.6-.7,.8h7.49v1.6c-1.3,1.3-2.7,2.3-4.1,3.2,1.9,.8,4.1,1.5,6.59,1.9v2.1m-5.29-7.19h-6.49c.9,.8,2,1.5,3.2,2.3,1.2-.7,2.2-1.4,3.3-2.3Z"/></g></svg>