<?xml version="1.0" encoding="UTF-8"?>
<svg id="_レイヤー_1" xmlns="http://www.w3.org/2000/svg" version="1.1" viewBox="0 0 57 65" width="57" height="65">
  <!-- Generator: Adobe Illustrator 29.0.1, SVG Export Plug-In . SVG Version: 2.1.0 Build 192)  -->
  <defs>
    <style>
      .st0, .st1 {
        fill: #3e3a39;
      }

      .st2 {
        fill: #005bab;
      }

      .st3 {
        fill: #008756;
      }

      .st1 {
        fill-rule: evenodd;
      }
    </style>
  </defs>
  <path class="st2" d="M56.5.3c-9.6,14.9-20.8,27.3-35,35.2-1.2.7-1.7.5-2.3-.7-.5-1.1-1-5.3-1-14.6s.2-.7.4-.9C27.2,13,39,6.9,56.3,0c.2,0,.3,0,.2.3M.7,43.2c-.2,0-.3,0-.2-.2,3.2-8.6,8-15.8,16.8-22.6.2-.1.4,0,.4.2,0,9.3-.5,13.1-1,14.2-.6,1.1-.8,1.2-2,.7-1.2-.4-2.5-1.1-6-3.2-1.2-.7-1.5-.4-.3.4,3.3,2.3,4.5,3.3,5.4,4.2.9.9,1.1,1.9,0,2.4-4.1,1.7-8.5,3.1-13.2,4"/>
  <path class="st3" d="M21.5,39.2c-.4-.5-.4-1,.6-1.2,4.5-1.1,9.5-1.1,14.9-1.1s10.5.5,12.8.8c.2,0,.3.2,0,.3-11.4,6.1-21.9,8.5-31.4,8.9-.1,0-.3,0-.3-.2,0-3.7.5-5.1.8-5.9.3-.8.8-.8,1.5-.6.9.3,2.5,1.2,5.2,2.8.7.4.8,0,.2-.3-2.7-1.8-3.8-2.8-4.4-3.5M17.4,46.9c-3.9.1-7.5,0-11-.4-.2,0-.2-.2-.1-.3,2.6-2.7,5.5-4.6,8.5-6,1-.5,1.6-.2,2,.5.4.7.8,2.2.8,5.9,0,.1-.1.3-.2.3"/>
  <path class="st1" d="M38.2,57.7v7.3h-1v-5.7c-.4.5-.7.9-1,1.2l-.8-.8c1.4-1.3,2.2-2.6,2.8-4.5h1.2c-.2.5-.5,1.4-1.1,2.4"/>
  <path class="st1" d="M39.3,52.7v1.3h-5v5.3c0,2.2-.3,3.9-1,5.2l1,.5c.9-1.8,1-3.8,1-5.8v-4.2h10.4v-1h-5.4v-1.3h-1.1Z"/>
  <path class="st1" d="M44.5,55.3h-1.1v1.9h-4.4v1h4.4v5.3c0,.4-.2.4-.4.4h-1.4v1.1h1.7c.7,0,1.1-.4,1.1-1.2v-5.7h1.2v-1h-1.2v-1.9h0Z"/>
  <path class="st1" d="M41.9,62.6c-.1-.8-.5-2.3-1-3.4h-1c.5,1.2.9,2.6,1,3.4h1.1Z"/>
  <path class="st1" d="M8.7,54H3.7v11h1.1v-10h3.9c0,1-.5,2.5-1,3.3-.7,1.2-1.6,1.9-2.8,2.6l.6,1c2.1-1.2,3.1-3,3.7-4.5.3.8,1,2.5,3.6,4.5l.7-.9c-.4-.2-.9-.6-1.6-1.3-1.4-1.3-2.1-3.1-2.1-4.7h3.8v8.6c0,.3-.2.3-.4.3h-1.6v1.1h1.9c1.1,0,1.1-.8,1.1-1.1v-9.9h-4.9v-1.4h-1.1s0,1.4,0,1.4Z"/>
  <path class="st1" d="M29.2,54.2h-3v.9h3v-.9ZM29.2,55.8h-3v1h3v-1ZM25.2,53.3h5.1v10.7c0,.6-.3,1-1,1h-1.1v-1h.7c.4,0,.4-.2.4-.3v-6h-4v-4.3h0Z"/>
  <path class="st1" d="M26.3,62.6h-3.5v1.4h3.5v-1.4ZM27.3,64.8h-5.4v-2.9h5.4v2.9Z"/>
  <path class="st1" d="M23,54.2h-3v.9h3v-.9ZM23,55.8h-3v1h3v-1ZM18.9,53.3h5.1v4.3h-4v7.4h-1.1v-11.7h0Z"/>
  <path class="st0" d="M26.2,59.1h-3.1c.4.4.9.7,1.5,1.1.5-.3,1-.7,1.5-1.1M28.7,62.5c-1.7-.4-2.9-.8-4-1.4-1.2.6-2.5,1-4.2,1.3v-.9c1.3-.2,2.4-.5,3.2-.9-.5-.3-.9-.6-1.3-1-.6.4-1.1.6-1.5.8l-.4-.8c1-.4,1.9-.9,2.6-1.7h1.2c-.1.1-.2.3-.4.4h3.6v.8c-.6.6-1.3,1.1-2,1.5.9.4,1.9.7,3.1.9v1h0Z"/>
</svg>